<svg width="32" height="33" viewBox="0 0 32 33" fill="none" xmlns="http://www.w3.org/2000/svg">
<path d="M15.9999 29.8334C12.911 29.0556 10.3608 27.2831 8.34925 24.516C6.3377 21.7489 5.33236 18.6769 5.33325 15.3V7.16669L15.9999 3.16669L26.6666 7.16669V15.3C26.6666 18.6778 25.6613 21.7502 23.6506 24.5174C21.6399 27.2845 19.0897 29.0565 15.9999 29.8334ZM15.9999 27.0334C18.311 26.3 20.2221 24.8334 21.7332 22.6334C23.2444 20.4334 23.9999 17.9889 23.9999 15.3V9.00002L15.9999 6.00002L7.99992 9.00002V15.3C7.99992 17.9889 8.75547 20.4334 10.2666 22.6334C11.7777 24.8334 13.6888 26.3 15.9999 27.0334Z" fill="#7F7F7F"/>
</svg>
