<svg width="32" height="33" viewBox="0 0 32 33" fill="none" xmlns="http://www.w3.org/2000/svg">
<path d="M16 20.75C18.2091 20.75 20 18.9591 20 16.75C20 14.5409 18.2091 12.75 16 12.75C13.7909 12.75 12 14.5409 12 16.75C12 18.9591 13.7909 20.75 16 20.75Z" fill="#7F7F7F" stroke="#7F7F7F" stroke-width="1.5"/>
<path d="M18.3533 3.61941C17.864 3.41675 17.2427 3.41675 16 3.41675C14.7573 3.41675 14.136 3.41675 13.6467 3.61941C13.3229 3.75343 13.0287 3.94994 12.781 4.19771C12.5332 4.44548 12.3367 4.73966 12.2027 5.06341C12.08 5.36075 12.0307 5.70875 12.012 6.21408C12.0033 6.57932 11.9021 6.93639 11.7179 7.25189C11.5337 7.56739 11.2725 7.831 10.9587 8.01808C10.6397 8.19644 10.2808 8.29098 9.91537 8.29284C9.54996 8.29471 9.19005 8.20384 8.86932 8.02875C8.42132 7.79142 8.09732 7.66075 7.77599 7.61808C7.07508 7.52591 6.36626 7.71582 5.80532 8.14608C5.38666 8.47008 5.07466 9.00741 4.45332 10.0834C3.83199 11.1594 3.51999 11.6967 3.45199 12.2234C3.40617 12.5707 3.42922 12.9236 3.51981 13.2619C3.61041 13.6003 3.76678 13.9175 3.97999 14.1954C4.17732 14.4514 4.45332 14.6661 4.88132 14.9354C5.51199 15.3314 5.91732 16.0061 5.91732 16.7501C5.91732 17.4941 5.51199 18.1687 4.88132 18.5634C4.45332 18.8341 4.17599 19.0487 3.97999 19.3047C3.76678 19.5827 3.61041 19.8999 3.51981 20.2382C3.42922 20.5766 3.40617 20.9295 3.45199 21.2767C3.52132 21.8021 3.83199 22.3407 4.45199 23.4167C5.07466 24.4927 5.38532 25.0301 5.80532 25.3541C6.08324 25.5673 6.40044 25.7237 6.7388 25.8143C7.07716 25.9049 7.43005 25.9279 7.77732 25.8821C8.09732 25.8394 8.42132 25.7088 8.86932 25.4714C9.19005 25.2963 9.54996 25.2055 9.91537 25.2073C10.2808 25.2092 10.6397 25.3037 10.9587 25.4821C11.6027 25.8554 11.9853 26.5421 12.012 27.2861C12.0307 27.7928 12.0787 28.1394 12.2027 28.4367C12.3367 28.7605 12.5332 29.0547 12.781 29.3025C13.0287 29.5502 13.3229 29.7467 13.6467 29.8807C14.136 30.0834 14.7573 30.0834 16 30.0834C17.2427 30.0834 17.864 30.0834 18.3533 29.8807C18.6771 29.7467 18.9713 29.5502 19.219 29.3025C19.4668 29.0547 19.6633 28.7605 19.7973 28.4367C19.92 28.1394 19.9693 27.7928 19.988 27.2861C20.0147 26.5421 20.3973 25.8541 21.0413 25.4821C21.3602 25.3037 21.7192 25.2092 22.0846 25.2073C22.45 25.2055 22.8099 25.2963 23.1307 25.4714C23.5787 25.7088 23.9027 25.8394 24.2227 25.8821C24.5699 25.9279 24.9228 25.9049 25.2612 25.8143C25.5995 25.7237 25.9167 25.5673 26.1947 25.3541C26.6147 25.0314 26.9253 24.4927 27.5467 23.4167C28.168 22.3407 28.48 21.8034 28.548 21.2767C28.5938 20.9295 28.5708 20.5766 28.4802 20.2382C28.3896 19.8999 28.2332 19.5827 28.02 19.3047C27.8227 19.0487 27.5467 18.8341 27.1187 18.5647C26.8066 18.3746 26.5478 18.1084 26.3666 17.791C26.1854 17.4737 26.0877 17.1155 26.0827 16.7501C26.0827 16.0061 26.488 15.3314 27.1187 14.9367C27.5467 14.6661 27.824 14.4514 28.02 14.1954C28.2332 13.9175 28.3896 13.6003 28.4802 13.2619C28.5708 12.9236 28.5938 12.5707 28.548 12.2234C28.4787 11.6981 28.168 11.1594 27.548 10.0834C26.9253 9.00741 26.6147 8.47008 26.1947 8.14608C25.9167 7.93287 25.5995 7.7765 25.2612 7.6859C24.9228 7.59531 24.5699 7.57226 24.2227 7.61808C23.9027 7.66075 23.5787 7.79142 23.1293 8.02875C22.8088 8.20361 22.4491 8.29434 22.084 8.29248C21.7188 8.29061 21.3601 8.19621 21.0413 8.01808C20.7275 7.831 20.4663 7.56739 20.2821 7.25189C20.0979 6.93639 19.9967 6.57932 19.988 6.21408C19.9693 5.70741 19.9213 5.36075 19.7973 5.06341C19.6633 4.73966 19.4668 4.44548 19.219 4.19771C18.9713 3.94994 18.6771 3.75343 18.3533 3.61941Z" stroke="#7F7F7F" stroke-width="1.5"/>
</svg>
