<svg width="32" height="33" viewBox="0 0 32 33" fill="none" xmlns="http://www.w3.org/2000/svg">
<g clip-path="url(#clip0_48_394)">
<path d="M29.64 16.75C29.3416 15.9194 28.8648 15.1644 28.2432 14.5379C27.6216 13.9115 26.8702 13.4288 26.042 13.124L26 9.75C26 4.75 21.06 0.75 15 0.75C8.94 0.75 4 4.75 4 9.75V13.11C2.83451 13.5251 1.82523 14.2893 1.10951 15.2984C0.393782 16.3076 0.0063725 17.5128 0 18.75L0 20.75C0 22.3413 0.632141 23.8674 1.75736 24.9926C2.88258 26.1179 4.4087 26.75 6 26.75H8V12.75H6V9.75C6 5.89 10 2.75 15 2.75C20 2.75 24 5.89 24 9.75V12.75H22V26.75H24C25.5913 26.75 27.1174 26.1179 28.2426 24.9926C29.3679 23.8674 30 22.3413 30 20.75V24.21C30 25.9445 29.311 27.608 28.0845 28.8345C26.858 30.061 25.1945 30.75 23.46 30.75H20C20 30.2196 19.7893 29.7109 19.4142 29.3358C19.0391 28.9607 18.5304 28.75 18 28.75H16C15.4696 28.75 14.9609 28.9607 14.5858 29.3358C14.2107 29.7109 14 30.2196 14 30.75C14 31.2804 14.2107 31.7891 14.5858 32.1642C14.9609 32.5393 15.4696 32.75 16 32.75H23.46C25.7249 32.75 27.8971 31.8503 29.4987 30.2487C31.1003 28.6471 32 26.4749 32 24.21V16.75H29.64Z" fill="#7F7F7F"/>
</g>
<defs>
<clipPath id="clip0_48_394">
<rect width="32" height="32" fill="white" transform="translate(0 0.75)"/>
</clipPath>
</defs>
</svg>
