<svg width="139" height="140" viewBox="0 0 139 140" fill="none" xmlns="http://www.w3.org/2000/svg">
<g filter="url(#filter0_d_48_260)">
<path d="M58.8685 49.71L69.7485 27.1728L80.6285 49.71" stroke="white" stroke-width="2.33143" stroke-miterlimit="3.8637"/>
</g>
<path d="M69.3603 1.91602C83.9378 1.91618 95.7831 13.9047 95.7831 28.7275C95.7829 43.5502 83.9376 55.5379 69.3603 55.5381C54.7828 55.5381 42.9376 43.5503 42.9374 28.7275C42.9374 13.9046 54.7827 1.91602 69.3603 1.91602Z" stroke="#FBFFFA" stroke-width="2.33143"/>
<g filter="url(#filter1_d_48_260)">
<path d="M53.4285 11.6301L69.7485 45.8244L86.0685 11.6301" stroke="white" stroke-width="3.88571"/>
</g>
<path d="M30.5961 90.2942C28.6895 90.2942 27.073 89.973 25.7467 89.3305C24.4204 88.6674 23.291 87.8177 22.3584 86.7815L25.467 83.6418C26.9383 85.2997 28.7517 86.1287 30.907 86.1287C32.0675 86.1287 32.9275 85.8904 33.4871 85.4137C34.0466 84.9371 34.3264 84.305 34.3264 83.5175C34.3264 82.9165 34.1606 82.4191 33.829 82.0254C33.4974 81.6109 32.8239 81.3311 31.8084 81.1861L29.6635 80.9063C27.3632 80.6162 25.6742 79.9219 24.5966 78.8235C23.5396 77.7252 23.0112 76.2642 23.0112 74.4405C23.0112 73.4664 23.1977 72.5753 23.5707 71.7671C23.9438 70.9589 24.4722 70.2646 25.1561 69.6843C25.8607 69.1041 26.7104 68.6585 27.7051 68.3477C28.7206 68.0161 29.8708 67.8503 31.1556 67.8503C32.7928 67.8503 34.2331 68.1093 35.4766 68.6274C36.72 69.1455 37.7873 69.9019 38.6784 70.8967L35.5387 74.0674C35.0206 73.4664 34.3886 72.9794 33.6425 72.6064C32.9172 72.2126 31.995 72.0158 30.8759 72.0158C29.819 72.0158 29.0314 72.2023 28.5134 72.5753C27.9953 72.9483 27.7362 73.4664 27.7362 74.1296C27.7362 74.8757 27.9331 75.4145 28.3268 75.7461C28.7413 76.0776 29.4045 76.316 30.3163 76.461L32.4612 76.803C34.6994 77.1553 36.3573 77.8495 37.435 78.8857C38.5126 79.9012 39.0514 81.3518 39.0514 83.2377C39.0514 84.2739 38.8649 85.2272 38.4919 86.0976C38.1188 86.968 37.5697 87.7141 36.8443 88.3358C36.1397 88.9575 35.259 89.4445 34.202 89.7968C33.1451 90.1284 31.9431 90.2942 30.5961 90.2942ZM42.1296 89.9211V86.1598H44.9273V71.9847H42.1296V68.2233H52.4501V71.9847H49.6524V86.1598H52.4501V89.9211H42.1296ZM70.1578 86.4706H70.0023C69.8366 87.569 69.277 88.4808 68.3237 89.2062C67.3704 89.9315 66.0752 90.2942 64.438 90.2942C63.1946 90.2942 62.034 90.0558 60.9564 89.5792C59.8788 89.1026 58.9358 88.3979 58.1276 87.4654C57.3194 86.5328 56.6873 85.3723 56.2314 83.9838C55.7754 82.5953 55.5475 80.9892 55.5475 79.1655C55.5475 77.3418 55.7858 75.7253 56.2625 74.3161C56.7391 72.9069 57.4023 71.7256 58.2519 70.7723C59.1223 69.819 60.1585 69.0937 61.3605 68.5963C62.5625 68.099 63.8992 67.8503 65.3706 67.8503C67.3186 67.8503 68.9972 68.2751 70.4065 69.1248C71.8157 69.9538 72.9244 71.2075 73.7326 72.8862L69.878 75.0933C69.5464 74.2436 69.0283 73.5286 68.3237 72.9483C67.6191 72.3473 66.6347 72.0469 65.3706 72.0469C63.8992 72.0469 62.7283 72.4717 61.8579 73.3214C60.9875 74.171 60.5523 75.5077 60.5523 77.3314V80.813C60.5523 82.616 60.9875 83.9527 61.8579 84.8231C62.7283 85.6728 63.8992 86.0976 65.3706 86.0976C65.9508 86.0976 66.5 86.0354 67.0181 85.9111C67.5362 85.766 67.9921 85.5588 68.3859 85.2894C68.7796 84.9992 69.0801 84.6573 69.2874 84.2635C69.5153 83.8698 69.6293 83.4035 69.6293 82.8647V81.7767H65.5882V77.8288H74.1367V89.9211H70.1578V86.4706ZM85.755 90.2942C83.8484 90.2942 82.232 89.973 80.9057 89.3305C79.5793 88.6674 78.4499 87.8177 77.5173 86.7815L80.6259 83.6418C82.0973 85.2997 83.9106 86.1287 86.0659 86.1287C87.2264 86.1287 88.0865 85.8904 88.646 85.4137C89.2055 84.9371 89.4853 84.305 89.4853 83.5175C89.4853 82.9165 89.3195 82.4191 88.9879 82.0254C88.6564 81.6109 87.9828 81.3311 86.9674 81.1861L84.8225 80.9063C82.5221 80.6162 80.8331 79.9219 79.7555 78.8235C78.6986 77.7252 78.1701 76.2642 78.1701 74.4405C78.1701 73.4664 78.3566 72.5753 78.7297 71.7671C79.1027 70.9589 79.6311 70.2646 80.315 69.6843C81.0196 69.1041 81.8693 68.6585 82.8641 68.3477C83.8795 68.0161 85.0297 67.8503 86.3146 67.8503C87.9518 67.8503 89.3921 68.1093 90.6355 68.6274C91.8789 69.1455 92.9462 69.9019 93.8373 70.8967L90.6977 74.0674C90.1796 73.4664 89.5475 72.9794 88.8014 72.6064C88.0761 72.2126 87.1539 72.0158 86.0348 72.0158C84.9779 72.0158 84.1904 72.2023 83.6723 72.5753C83.1542 72.9483 82.8951 73.4664 82.8951 74.1296C82.8951 74.8757 83.092 75.4145 83.4858 75.7461C83.9003 76.0776 84.5634 76.316 85.4753 76.461L87.6202 76.803C89.8583 77.1553 91.5163 77.8495 92.5939 78.8857C93.6715 79.9012 94.2103 81.3518 94.2103 83.2377C94.2103 84.2739 94.0238 85.2272 93.6508 86.0976C93.2778 86.968 92.7286 87.7141 92.0033 88.3358C91.2987 88.9575 90.4179 89.4445 89.361 89.7968C88.3041 90.1284 87.1021 90.2942 85.755 90.2942ZM111.495 89.9211L109.94 84.7609H102.697L101.143 89.9211H96.356L103.506 68.2233H109.35L116.406 89.9211H111.495ZM106.366 72.5131H106.21L103.817 80.7509H108.79L106.366 72.5131Z" fill="white"/>
<path d="M3.69141 98.6697H135.029" stroke="white" stroke-width="3.10857" stroke-linecap="round"/>
<path d="M37.2619 118.11L36.4785 115.62H33.0094L32.24 118.11H30.3655L33.6388 108.346H35.933L39.1783 118.11H37.2619ZM34.7719 110.024H34.702L33.457 114.039H36.0309L34.7719 110.024ZM42.8975 118.278C42.1981 118.278 41.6106 118.161 41.135 117.928C40.6594 117.686 40.2397 117.354 39.876 116.935L40.9671 115.872C41.2376 116.179 41.5313 116.422 41.8484 116.599C42.1748 116.776 42.5478 116.865 42.9675 116.865C43.3965 116.865 43.7042 116.79 43.8907 116.641C44.0866 116.492 44.1845 116.287 44.1845 116.026C44.1845 115.811 44.1145 115.643 43.9747 115.522C43.8441 115.391 43.6156 115.303 43.2892 115.256L42.5618 115.158C41.7691 115.056 41.1629 114.832 40.7433 114.487C40.333 114.132 40.1278 113.62 40.1278 112.948C40.1278 112.594 40.1931 112.277 40.3236 111.997C40.4542 111.708 40.6407 111.465 40.8832 111.269C41.1256 111.064 41.4147 110.91 41.7505 110.808C42.0955 110.696 42.4779 110.64 42.8975 110.64C43.2519 110.64 43.5643 110.668 43.8348 110.724C44.1145 110.771 44.3663 110.845 44.5901 110.948C44.814 111.041 45.0191 111.162 45.2056 111.311C45.3922 111.451 45.574 111.61 45.7512 111.787L44.7021 112.836C44.4876 112.612 44.2311 112.426 43.9327 112.277C43.6343 112.127 43.3079 112.053 42.9535 112.053C42.5618 112.053 42.2774 112.123 42.1002 112.263C41.9323 112.403 41.8484 112.584 41.8484 112.808C41.8484 113.051 41.9183 113.237 42.0582 113.368C42.2074 113.489 42.4546 113.578 42.7996 113.634L43.541 113.731C45.1171 113.955 45.9051 114.673 45.9051 115.886C45.9051 116.24 45.8305 116.566 45.6813 116.865C45.5414 117.154 45.3409 117.406 45.0797 117.62C44.8186 117.825 44.5016 117.989 44.1285 118.11C43.7648 118.222 43.3545 118.278 42.8975 118.278ZM50.4377 118.278C49.8968 118.278 49.4119 118.189 48.9829 118.012C48.5632 117.825 48.2042 117.569 47.9058 117.243C47.6167 116.907 47.3929 116.506 47.2343 116.04C47.0758 115.564 46.9965 115.032 46.9965 114.445C46.9965 113.867 47.0711 113.344 47.2203 112.878C47.3789 112.412 47.6027 112.016 47.8918 111.689C48.1809 111.353 48.5353 111.097 48.9549 110.92C49.3746 110.733 49.8502 110.64 50.3817 110.64C50.9506 110.64 51.4449 110.738 51.8645 110.934C52.2842 111.13 52.6292 111.395 52.8997 111.731C53.1701 112.067 53.3706 112.458 53.5012 112.906C53.6411 113.344 53.711 113.815 53.711 114.319V114.906H48.857V115.088C48.857 115.62 49.0062 116.049 49.3046 116.375C49.6031 116.692 50.046 116.851 50.6335 116.851C51.0812 116.851 51.4449 116.758 51.7247 116.571C52.0137 116.385 52.2702 116.147 52.494 115.858L53.4592 116.935C53.1608 117.354 52.7505 117.686 52.2282 117.928C51.7153 118.161 51.1185 118.278 50.4377 118.278ZM50.4097 111.983C49.9341 111.983 49.5564 112.141 49.2767 112.458C48.9969 112.776 48.857 113.186 48.857 113.689V113.801H51.8505V113.675C51.8505 113.172 51.7247 112.766 51.4729 112.458C51.2304 112.141 50.876 111.983 50.4097 111.983ZM57.6784 118.278C56.979 118.278 56.3915 118.161 55.9159 117.928C55.4403 117.686 55.0206 117.354 54.6569 116.935L55.748 115.872C56.0184 116.179 56.3122 116.422 56.6293 116.599C56.9557 116.776 57.3287 116.865 57.7484 116.865C58.1774 116.865 58.4851 116.79 58.6716 116.641C58.8675 116.492 58.9654 116.287 58.9654 116.026C58.9654 115.811 58.8954 115.643 58.7555 115.522C58.625 115.391 58.3965 115.303 58.0701 115.256L57.3427 115.158C56.55 115.056 55.9438 114.832 55.5242 114.487C55.1139 114.132 54.9087 113.62 54.9087 112.948C54.9087 112.594 54.974 112.277 55.1045 111.997C55.2351 111.708 55.4216 111.465 55.6641 111.269C55.9065 111.064 56.1956 110.91 56.5314 110.808C56.8764 110.696 57.2588 110.64 57.6784 110.64C58.0328 110.64 58.3452 110.668 58.6157 110.724C58.8954 110.771 59.1472 110.845 59.371 110.948C59.5949 111.041 59.8 111.162 59.9865 111.311C60.1731 111.451 60.3549 111.61 60.5321 111.787L59.483 112.836C59.2685 112.612 59.012 112.426 58.7136 112.277C58.4152 112.127 58.0888 112.053 57.7344 112.053C57.3427 112.053 57.0583 112.123 56.8811 112.263C56.7132 112.403 56.6293 112.584 56.6293 112.808C56.6293 113.051 56.6992 113.237 56.8391 113.368C56.9883 113.489 57.2355 113.578 57.5805 113.634L58.3219 113.731C59.8979 113.955 60.686 114.673 60.686 115.886C60.686 116.24 60.6114 116.566 60.4622 116.865C60.3223 117.154 60.1218 117.406 59.8606 117.62C59.5995 117.825 59.2824 117.989 58.9094 118.11C58.5457 118.222 58.1354 118.278 57.6784 118.278ZM65.1626 118.278C64.6404 118.278 64.1695 118.189 63.7498 118.012C63.3395 117.835 62.9851 117.578 62.6867 117.243C62.3976 116.907 62.1737 116.506 62.0152 116.04C61.8567 115.564 61.7774 115.032 61.7774 114.445C61.7774 113.857 61.8567 113.33 62.0152 112.864C62.1737 112.398 62.3976 112.002 62.6867 111.675C62.9851 111.339 63.3395 111.083 63.7498 110.906C64.1695 110.729 64.6404 110.64 65.1626 110.64C65.6849 110.64 66.1558 110.729 66.5755 110.906C66.9951 111.083 67.3495 111.339 67.6386 111.675C67.937 112.002 68.1655 112.398 68.3241 112.864C68.4826 113.33 68.5619 113.857 68.5619 114.445C68.5619 115.032 68.4826 115.564 68.3241 116.04C68.1655 116.506 67.937 116.907 67.6386 117.243C67.3495 117.578 66.9951 117.835 66.5755 118.012C66.1558 118.189 65.6849 118.278 65.1626 118.278ZM65.1626 116.837C65.6383 116.837 66.0113 116.692 66.2817 116.403C66.5522 116.114 66.6874 115.69 66.6874 115.13V113.773C66.6874 113.223 66.5522 112.804 66.2817 112.514C66.0113 112.225 65.6383 112.081 65.1626 112.081C64.6964 112.081 64.328 112.225 64.0575 112.514C63.7871 112.804 63.6519 113.223 63.6519 113.773V115.13C63.6519 115.69 63.7871 116.114 64.0575 116.403C64.328 116.692 64.6964 116.837 65.1626 116.837ZM70.1492 118.11V110.808H71.9398V112.319H72.0097C72.0564 112.123 72.1263 111.936 72.2196 111.759C72.3221 111.573 72.4527 111.409 72.6112 111.269C72.7698 111.13 72.9563 111.018 73.1708 110.934C73.3946 110.85 73.6511 110.808 73.9401 110.808H74.3318V112.5H73.7723C73.1661 112.5 72.7092 112.589 72.4014 112.766C72.0937 112.943 71.9398 113.233 71.9398 113.634V118.11H70.1492ZM78.5241 118.278C77.9832 118.278 77.4983 118.189 77.0693 118.012C76.6497 117.825 76.2906 117.569 75.9922 117.243C75.7031 116.907 75.4793 116.506 75.3207 116.04C75.1622 115.564 75.0829 115.032 75.0829 114.445C75.0829 113.867 75.1575 113.344 75.3068 112.878C75.4653 112.412 75.6891 112.016 75.9782 111.689C76.2673 111.353 76.6217 111.097 77.0413 110.92C77.461 110.733 77.9366 110.64 78.4682 110.64C79.037 110.64 79.5313 110.738 79.951 110.934C80.3706 111.13 80.7157 111.395 80.9861 111.731C81.2566 112.067 81.4571 112.458 81.5876 112.906C81.7275 113.344 81.7975 113.815 81.7975 114.319V114.906H76.9434V115.088C76.9434 115.62 77.0926 116.049 77.3911 116.375C77.6895 116.692 78.1324 116.851 78.72 116.851C79.1676 116.851 79.5313 116.758 79.8111 116.571C80.1002 116.385 80.3566 116.147 80.5804 115.858L81.5457 116.935C81.2472 117.354 80.8369 117.686 80.3147 117.928C79.8018 118.161 79.2049 118.278 78.5241 118.278ZM78.4962 111.983C78.0205 111.983 77.6428 112.141 77.3631 112.458C77.0833 112.776 76.9434 113.186 76.9434 113.689V113.801H79.937V113.675C79.937 113.172 79.8111 112.766 79.5593 112.458C79.3168 112.141 78.9624 111.983 78.4962 111.983ZM85.7649 118.278C85.0654 118.278 84.4779 118.161 84.0023 117.928C83.5267 117.686 83.107 117.354 82.7433 116.935L83.8344 115.872C84.1049 116.179 84.3986 116.422 84.7157 116.599C85.0421 116.776 85.4151 116.865 85.8348 116.865C86.2638 116.865 86.5715 116.79 86.7581 116.641C86.9539 116.492 87.0518 116.287 87.0518 116.026C87.0518 115.811 86.9819 115.643 86.842 115.522C86.7114 115.391 86.4829 115.303 86.1565 115.256L85.4291 115.158C84.6365 115.056 84.0303 114.832 83.6106 114.487C83.2003 114.132 82.9951 113.62 82.9951 112.948C82.9951 112.594 83.0604 112.277 83.191 111.997C83.3215 111.708 83.508 111.465 83.7505 111.269C83.993 111.064 84.2821 110.91 84.6178 110.808C84.9629 110.696 85.3452 110.64 85.7649 110.64C86.1192 110.64 86.4317 110.668 86.7021 110.724C86.9819 110.771 87.2337 110.845 87.4575 110.948C87.6813 111.041 87.8865 111.162 88.073 111.311C88.2595 111.451 88.4413 111.61 88.6185 111.787L87.5694 112.836C87.3549 112.612 87.0984 112.426 86.8 112.277C86.5016 112.127 86.1752 112.053 85.8208 112.053C85.4291 112.053 85.1447 112.123 84.9675 112.263C84.7997 112.403 84.7157 112.584 84.7157 112.808C84.7157 113.051 84.7857 113.237 84.9255 113.368C85.0748 113.489 85.3219 113.578 85.6669 113.634L86.4083 113.731C87.9844 113.955 88.7724 114.673 88.7724 115.886C88.7724 116.24 88.6978 116.566 88.5486 116.865C88.4087 117.154 88.2082 117.406 87.9471 117.62C87.686 117.825 87.3689 117.989 86.9959 118.11C86.6322 118.222 86.2218 118.278 85.7649 118.278ZM96.6109 118.278C96.07 118.278 95.5851 118.189 95.1561 118.012C94.7365 117.825 94.3774 117.569 94.079 117.243C93.7899 116.907 93.5661 116.506 93.4075 116.04C93.249 115.564 93.1697 115.032 93.1697 114.445C93.1697 113.867 93.2443 113.344 93.3935 112.878C93.5521 112.412 93.7759 112.016 94.065 111.689C94.3541 111.353 94.7085 111.097 95.1281 110.92C95.5478 110.733 96.0234 110.64 96.555 110.64C97.1238 110.64 97.6181 110.738 98.0378 110.934C98.4574 111.13 98.8025 111.395 99.0729 111.731C99.3434 112.067 99.5439 112.458 99.6744 112.906C99.8143 113.344 99.8842 113.815 99.8842 114.319V114.906H95.0302V115.088C95.0302 115.62 95.1794 116.049 95.4778 116.375C95.7763 116.692 96.2192 116.851 96.8068 116.851C97.2544 116.851 97.6181 116.758 97.8979 116.571C98.187 116.385 98.4434 116.147 98.6672 115.858L99.6325 116.935C99.334 117.354 98.9237 117.686 98.4015 117.928C97.8885 118.161 97.2917 118.278 96.6109 118.278ZM96.5829 111.983C96.1073 111.983 95.7296 112.141 95.4499 112.458C95.1701 112.776 95.0302 113.186 95.0302 113.689V113.801H98.0238V113.675C98.0238 113.172 97.8979 112.766 97.6461 112.458C97.4036 112.141 97.0492 111.983 96.5829 111.983ZM101.46 118.11V110.808H103.25V112.025H103.32C103.469 111.633 103.702 111.307 104.02 111.046C104.346 110.775 104.794 110.64 105.362 110.64C106.118 110.64 106.696 110.887 107.097 111.381C107.498 111.876 107.698 112.58 107.698 113.494V118.11H105.908V113.675C105.908 113.153 105.815 112.762 105.628 112.5C105.442 112.239 105.134 112.109 104.705 112.109C104.518 112.109 104.337 112.137 104.159 112.193C103.992 112.239 103.838 112.314 103.698 112.417C103.567 112.51 103.46 112.631 103.376 112.78C103.292 112.92 103.25 113.088 103.25 113.284V118.11H101.46ZM15.4572 136.278C14.6179 136.278 13.9045 136.129 13.3169 135.83C12.7387 135.532 12.2398 135.14 11.8202 134.655L13.0651 133.452C13.4009 133.844 13.7739 134.142 14.1842 134.347C14.6039 134.552 15.0655 134.655 15.5691 134.655C16.138 134.655 16.567 134.534 16.8561 134.291C17.1452 134.04 17.2897 133.704 17.2897 133.284C17.2897 132.958 17.1964 132.692 17.0099 132.487C16.8234 132.282 16.4737 132.132 15.9608 132.039L15.0375 131.899C13.0885 131.592 12.1139 130.645 12.1139 129.06C12.1139 128.621 12.1932 128.225 12.3517 127.871C12.5196 127.516 12.7574 127.213 13.0651 126.961C13.3729 126.71 13.7413 126.518 14.1702 126.388C14.6086 126.248 15.1028 126.178 15.653 126.178C16.3898 126.178 17.0332 126.299 17.5835 126.542C18.1337 126.784 18.6046 127.143 18.9963 127.619L17.7373 128.808C17.4949 128.509 17.2011 128.267 16.8561 128.08C16.511 127.894 16.0774 127.801 15.5551 127.801C15.0236 127.801 14.6225 127.903 14.3521 128.108C14.091 128.304 13.9604 128.584 13.9604 128.948C13.9604 129.321 14.0677 129.596 14.2822 129.773C14.4966 129.95 14.8417 130.081 15.3173 130.165L16.2266 130.333C17.2151 130.51 17.9425 130.827 18.4088 131.284C18.8844 131.731 19.1222 132.361 19.1222 133.172C19.1222 133.639 19.0383 134.063 18.8704 134.445C18.7119 134.818 18.4741 135.145 18.157 135.424C17.8492 135.695 17.4669 135.905 17.0099 136.054C16.5623 136.203 16.0447 136.278 15.4572 136.278ZM23.813 136.278C23.2721 136.278 22.7871 136.189 22.3582 136.012C21.9385 135.825 21.5795 135.569 21.281 135.243C20.9919 134.907 20.7681 134.506 20.6096 134.04C20.451 133.564 20.3718 133.032 20.3718 132.445C20.3718 131.867 20.4464 131.344 20.5956 130.878C20.7541 130.412 20.9779 130.016 21.267 129.689C21.5561 129.353 21.9105 129.097 22.3302 128.92C22.7498 128.733 23.2254 128.64 23.757 128.64C24.3259 128.64 24.8201 128.738 25.2398 128.934C25.6595 129.13 26.0045 129.395 26.275 129.731C26.5454 130.067 26.7459 130.458 26.8765 130.906C27.0163 131.344 27.0863 131.815 27.0863 132.319V132.906H22.2323V133.088C22.2323 133.62 22.3815 134.049 22.6799 134.375C22.9783 134.692 23.4213 134.851 24.0088 134.851C24.4564 134.851 24.8201 134.758 25.0999 134.571C25.389 134.385 25.6455 134.147 25.8693 133.858L26.8345 134.935C26.5361 135.354 26.1257 135.686 25.6035 135.928C25.0906 136.161 24.4937 136.278 23.813 136.278ZM23.785 129.983C23.3094 129.983 22.9317 130.141 22.6519 130.458C22.3721 130.776 22.2323 131.186 22.2323 131.689V131.801H25.2258V131.675C25.2258 131.172 25.0999 130.766 24.8481 130.458C24.6057 130.141 24.2513 129.983 23.785 129.983ZM35.2503 136.725C35.2503 137.108 35.1803 137.443 35.0404 137.733C34.9099 138.031 34.6907 138.278 34.383 138.474C34.0752 138.67 33.6789 138.819 33.1939 138.922C32.709 139.024 32.1168 139.075 31.4174 139.075C30.8019 139.075 30.2797 139.033 29.8507 138.95C29.4217 138.875 29.0673 138.763 28.7875 138.614C28.5171 138.474 28.3213 138.297 28.2 138.082C28.0788 137.868 28.0182 137.625 28.0182 137.355C28.0182 136.945 28.1301 136.623 28.3539 136.39C28.587 136.166 28.9088 136.021 29.3191 135.956V135.802C29.0207 135.728 28.7875 135.583 28.6197 135.368C28.4611 135.145 28.3819 134.884 28.3819 134.585C28.3819 134.399 28.4192 134.235 28.4938 134.096C28.5684 133.946 28.6663 133.82 28.7875 133.718C28.9181 133.615 29.0626 133.531 29.2212 133.466C29.3797 133.391 29.5476 133.335 29.7248 133.298V133.242C29.2771 133.037 28.9414 132.753 28.7176 132.389C28.5031 132.025 28.3959 131.601 28.3959 131.116C28.3959 130.37 28.6523 129.773 29.1652 129.325C29.6781 128.868 30.4289 128.64 31.4174 128.64C31.6412 128.64 31.8604 128.654 32.0749 128.682C32.2987 128.71 32.5038 128.757 32.6904 128.822V128.584C32.6904 127.875 33.0354 127.521 33.7255 127.521H34.8586V128.892H33.3059V129.088C33.6882 129.302 33.9726 129.582 34.1592 129.927C34.3457 130.272 34.4389 130.668 34.4389 131.116C34.4389 131.853 34.1825 132.445 33.6696 132.892C33.166 133.34 32.4152 133.564 31.4174 133.564C30.9884 133.564 30.6154 133.522 30.2983 133.438C30.1584 133.503 30.0372 133.592 29.9346 133.704C29.832 133.806 29.7807 133.937 29.7807 134.096C29.7807 134.459 30.0978 134.641 30.732 134.641H32.6904C33.5856 134.641 34.2338 134.828 34.6348 135.201C35.0451 135.564 35.2503 136.073 35.2503 136.725ZM33.5716 136.935C33.5716 136.702 33.4784 136.52 33.2919 136.39C33.1053 136.259 32.7836 136.194 32.3267 136.194H29.8367C29.5849 136.38 29.459 136.632 29.459 136.949C29.459 137.229 29.5756 137.448 29.8087 137.607C30.0419 137.765 30.4382 137.844 30.9977 137.844H31.893C32.4805 137.844 32.9048 137.77 33.166 137.621C33.4364 137.471 33.5716 137.243 33.5716 136.935ZM31.4174 132.347C32.294 132.347 32.7323 131.974 32.7323 131.228V130.99C32.7323 130.244 32.294 129.871 31.4174 129.871C30.5408 129.871 30.1025 130.244 30.1025 130.99V131.228C30.1025 131.974 30.5408 132.347 31.4174 132.347ZM40.5941 134.893H40.5242C40.4589 135.079 40.3703 135.257 40.2584 135.424C40.1558 135.583 40.0206 135.728 39.8527 135.858C39.6942 135.989 39.4983 136.091 39.2652 136.166C39.0414 136.24 38.7803 136.278 38.4818 136.278C37.7265 136.278 37.1483 136.031 36.7473 135.536C36.3463 135.042 36.1457 134.338 36.1457 133.424V128.808H37.9363V133.242C37.9363 133.746 38.0342 134.133 38.23 134.403C38.4259 134.664 38.7383 134.795 39.1673 134.795C39.3445 134.795 39.517 134.772 39.6849 134.725C39.862 134.678 40.0159 134.608 40.1465 134.515C40.277 134.413 40.3843 134.291 40.4682 134.151C40.5522 134.002 40.5941 133.83 40.5941 133.634V128.808H42.3847V136.11H40.5941V134.893ZM44.4534 136.11V128.808H46.244V130.319H46.3139C46.3605 130.123 46.4305 129.936 46.5237 129.759C46.6263 129.573 46.7569 129.409 46.9154 129.269C47.074 129.13 47.2605 129.018 47.475 128.934C47.6988 128.85 47.9552 128.808 48.2443 128.808H48.636V130.5H48.0765C47.4703 130.5 47.0133 130.589 46.7056 130.766C46.3978 130.943 46.244 131.233 46.244 131.634V136.11H44.4534ZM52.7724 136.278C52.2501 136.278 51.7792 136.189 51.3595 136.012C50.9492 135.835 50.5948 135.578 50.2964 135.243C50.0073 134.907 49.7835 134.506 49.6249 134.04C49.4664 133.564 49.3871 133.032 49.3871 132.445C49.3871 131.857 49.4664 131.33 49.6249 130.864C49.7835 130.398 50.0073 130.002 50.2964 129.675C50.5948 129.339 50.9492 129.083 51.3595 128.906C51.7792 128.729 52.2501 128.64 52.7724 128.64C53.2946 128.64 53.7656 128.729 54.1852 128.906C54.6049 129.083 54.9592 129.339 55.2483 129.675C55.5468 130.002 55.7752 130.398 55.9338 130.864C56.0923 131.33 56.1716 131.857 56.1716 132.445C56.1716 133.032 56.0923 133.564 55.9338 134.04C55.7752 134.506 55.5468 134.907 55.2483 135.243C54.9592 135.578 54.6049 135.835 54.1852 136.012C53.7656 136.189 53.2946 136.278 52.7724 136.278ZM52.7724 134.837C53.248 134.837 53.621 134.692 53.8915 134.403C54.1619 134.114 54.2971 133.69 54.2971 133.13V131.773C54.2971 131.223 54.1619 130.804 53.8915 130.514C53.621 130.225 53.248 130.081 52.7724 130.081C52.3061 130.081 51.9377 130.225 51.6673 130.514C51.3968 130.804 51.2616 131.223 51.2616 131.773V133.13C51.2616 133.69 51.3968 134.114 51.6673 134.403C51.9377 134.692 52.3061 134.837 52.7724 134.837ZM60.151 136.278C59.4516 136.278 58.8641 136.161 58.3885 135.928C57.9128 135.686 57.4932 135.354 57.1295 134.935L58.2206 133.872C58.491 134.179 58.7848 134.422 59.1019 134.599C59.4283 134.776 59.8013 134.865 60.221 134.865C60.6499 134.865 60.9577 134.79 61.1442 134.641C61.34 134.492 61.438 134.287 61.438 134.026C61.438 133.811 61.368 133.643 61.2281 133.522C61.0976 133.391 60.8691 133.303 60.5427 133.256L59.8153 133.158C59.0226 133.056 58.4164 132.832 57.9968 132.487C57.5864 132.132 57.3813 131.62 57.3813 130.948C57.3813 130.594 57.4466 130.277 57.5771 129.997C57.7077 129.708 57.8942 129.465 58.1367 129.269C58.3791 129.064 58.6682 128.91 59.004 128.808C59.349 128.696 59.7314 128.64 60.151 128.64C60.5054 128.64 60.8178 128.668 61.0883 128.724C61.368 128.771 61.6198 128.845 61.8436 128.948C62.0675 129.041 62.2726 129.162 62.4591 129.311C62.6456 129.451 62.8275 129.61 63.0047 129.787L61.9555 130.836C61.7411 130.612 61.4846 130.426 61.1862 130.277C60.8877 130.127 60.5613 130.053 60.207 130.053C59.8153 130.053 59.5309 130.123 59.3537 130.263C59.1858 130.403 59.1019 130.584 59.1019 130.808C59.1019 131.051 59.1718 131.237 59.3117 131.368C59.4609 131.489 59.708 131.578 60.0531 131.634L60.7945 131.731C62.3705 131.955 63.1586 132.673 63.1586 133.886C63.1586 134.24 63.084 134.566 62.9347 134.865C62.7949 135.154 62.5944 135.406 62.3332 135.62C62.0721 135.825 61.755 135.989 61.382 136.11C61.0183 136.222 60.608 136.278 60.151 136.278ZM72.5218 128.808H74.2005L71.2629 137.411C71.1696 137.672 71.0624 137.896 70.9411 138.082C70.8292 138.278 70.694 138.437 70.5355 138.558C70.3769 138.679 70.1857 138.768 69.9619 138.824C69.7381 138.88 69.477 138.908 69.1786 138.908H68.1014V137.481H69.4164L69.7521 136.46L67.1362 128.808H68.9128L70.1857 132.669L70.6614 134.515H70.7453L71.2489 132.669L72.5218 128.808ZM78.7991 136.11V126.346H85.08V127.983H80.6456V130.347H84.5064V131.983H80.6456V136.11H78.7991ZM87.6559 127.745C87.2829 127.745 87.0125 127.661 86.8446 127.493C86.6861 127.325 86.6068 127.111 86.6068 126.849V126.57C86.6068 126.309 86.6861 126.094 86.8446 125.926C87.0125 125.758 87.2829 125.674 87.6559 125.674C88.0196 125.674 88.2854 125.758 88.4533 125.926C88.6212 126.094 88.7051 126.309 88.7051 126.57V126.849C88.7051 127.111 88.6212 127.325 88.4533 127.493C88.2854 127.661 88.0196 127.745 87.6559 127.745ZM86.7607 128.808H88.5512V136.11H86.7607V128.808ZM95.9983 136.11C95.6066 136.11 95.2942 135.998 95.061 135.774C94.8372 135.541 94.6973 135.233 94.6414 134.851H94.5574C94.4362 135.327 94.1891 135.686 93.816 135.928C93.443 136.161 92.9814 136.278 92.4312 136.278C91.6851 136.278 91.1116 136.082 90.7106 135.69C90.3096 135.299 90.1091 134.776 90.1091 134.123C90.1091 133.368 90.3795 132.809 90.9204 132.445C91.4613 132.072 92.2307 131.885 93.2285 131.885H94.4735V131.354C94.4735 130.943 94.3663 130.626 94.1518 130.403C93.9373 130.179 93.5922 130.067 93.1166 130.067C92.697 130.067 92.3566 130.16 92.0955 130.347C91.8437 130.524 91.6292 130.738 91.452 130.99L90.3888 130.039C90.6593 129.619 91.0183 129.283 91.466 129.032C91.9136 128.771 92.5058 128.64 93.2425 128.64C94.231 128.64 94.9818 128.864 95.4947 129.311C96.0076 129.759 96.264 130.403 96.264 131.242V134.683H96.9915V136.11H95.9983ZM93.0327 134.977C93.4337 134.977 93.7741 134.888 94.0539 134.711C94.3336 134.534 94.4735 134.273 94.4735 133.928V132.962H93.3264C92.3939 132.962 91.9276 133.261 91.9276 133.858V134.096C91.9276 134.394 92.0208 134.618 92.2074 134.767C92.4032 134.907 92.6783 134.977 93.0327 134.977ZM98.4406 136.11V128.808H100.231V130.025H100.301C100.45 129.633 100.683 129.307 101 129.046C101.327 128.775 101.775 128.64 102.343 128.64C103.099 128.64 103.677 128.887 104.078 129.381C104.479 129.876 104.679 130.58 104.679 131.494V136.11H102.889V131.675C102.889 131.153 102.796 130.762 102.609 130.5C102.423 130.239 102.115 130.109 101.686 130.109C101.499 130.109 101.318 130.137 101.14 130.193C100.973 130.239 100.819 130.314 100.679 130.417C100.548 130.51 100.441 130.631 100.357 130.78C100.273 130.92 100.231 131.088 100.231 131.284V136.11H98.4406ZM106.147 136.11V134.683L109.938 130.221H106.273V128.808H112.036V130.193L108.217 134.683H112.134V136.11H106.147ZM119.058 136.11C118.666 136.11 118.353 135.998 118.12 135.774C117.897 135.541 117.757 135.233 117.701 134.851H117.617C117.495 135.327 117.248 135.686 116.875 135.928C116.502 136.161 116.041 136.278 115.49 136.278C114.744 136.278 114.171 136.082 113.77 135.69C113.369 135.299 113.168 134.776 113.168 134.123C113.168 133.368 113.439 132.809 113.98 132.445C114.521 132.072 115.29 131.885 116.288 131.885H117.533V131.354C117.533 130.943 117.426 130.626 117.211 130.403C116.997 130.179 116.652 130.067 116.176 130.067C115.756 130.067 115.416 130.16 115.155 130.347C114.903 130.524 114.688 130.738 114.511 130.99L113.448 130.039C113.719 129.619 114.078 129.283 114.525 129.032C114.973 128.771 115.565 128.64 116.302 128.64C117.29 128.64 118.041 128.864 118.554 129.311C119.067 129.759 119.323 130.403 119.323 131.242V134.683H120.051V136.11H119.058ZM116.092 134.977C116.493 134.977 116.833 134.888 117.113 134.711C117.393 134.534 117.533 134.273 117.533 133.928V132.962H116.386C115.453 132.962 114.987 133.261 114.987 133.858V134.096C114.987 134.394 115.08 134.618 115.267 134.767C115.462 134.907 115.738 134.977 116.092 134.977ZM123.892 136.278C123.192 136.278 122.605 136.161 122.129 135.928C121.654 135.686 121.234 135.354 120.87 134.935L121.961 133.872C122.232 134.179 122.526 134.422 122.843 134.599C123.169 134.776 123.542 134.865 123.962 134.865C124.391 134.865 124.699 134.79 124.885 134.641C125.081 134.492 125.179 134.287 125.179 134.026C125.179 133.811 125.109 133.643 124.969 133.522C124.838 133.391 124.61 133.303 124.284 133.256L123.556 133.158C122.764 133.056 122.157 132.832 121.738 132.487C121.327 132.132 121.122 131.62 121.122 130.948C121.122 130.594 121.187 130.277 121.318 129.997C121.449 129.708 121.635 129.465 121.878 129.269C122.12 129.064 122.409 128.91 122.745 128.808C123.09 128.696 123.472 128.64 123.892 128.64C124.246 128.64 124.559 128.668 124.829 128.724C125.109 128.771 125.361 128.845 125.585 128.948C125.808 129.041 126.014 129.162 126.2 129.311C126.387 129.451 126.568 129.61 126.746 129.787L125.696 130.836C125.482 130.612 125.225 130.426 124.927 130.277C124.629 130.127 124.302 130.053 123.948 130.053C123.556 130.053 123.272 130.123 123.095 130.263C122.927 130.403 122.843 130.584 122.843 130.808C122.843 131.051 122.913 131.237 123.053 131.368C123.202 131.489 123.449 131.578 123.794 131.634L124.535 131.731C126.111 131.955 126.899 132.673 126.899 133.886C126.899 134.24 126.825 134.566 126.676 134.865C126.536 135.154 126.335 135.406 126.074 135.62C125.813 135.825 125.496 135.989 125.123 136.11C124.759 136.222 124.349 136.278 123.892 136.278Z" fill="white"/>
<defs>
<filter id="filter0_d_48_260" x="54.7102" y="24.4915" width="30.0768" height="31.9425" filterUnits="userSpaceOnUse" color-interpolation-filters="sRGB">
<feFlood flood-opacity="0" result="BackgroundImageFix"/>
<feColorMatrix in="SourceAlpha" type="matrix" values="0 0 0 0 0 0 0 0 0 0 0 0 0 0 0 0 0 0 127 0" result="hardAlpha"/>
<feOffset dy="3.10857"/>
<feGaussianBlur stdDeviation="1.55429"/>
<feComposite in2="hardAlpha" operator="out"/>
<feColorMatrix type="matrix" values="0 0 0 0 0 0 0 0 0 0 0 0 0 0 0 0 0 0 0.25 0"/>
<feBlend mode="normal" in2="BackgroundImageFix" result="effect1_dropShadow_48_260"/>
<feBlend mode="normal" in="SourceGraphic" in2="effect1_dropShadow_48_260" result="shape"/>
</filter>
<filter id="filter1_d_48_260" x="48.5665" y="10.7932" width="42.3639" height="45.7589" filterUnits="userSpaceOnUse" color-interpolation-filters="sRGB">
<feFlood flood-opacity="0" result="BackgroundImageFix"/>
<feColorMatrix in="SourceAlpha" type="matrix" values="0 0 0 0 0 0 0 0 0 0 0 0 0 0 0 0 0 0 127 0" result="hardAlpha"/>
<feOffset dy="3.10857"/>
<feGaussianBlur stdDeviation="1.55429"/>
<feComposite in2="hardAlpha" operator="out"/>
<feColorMatrix type="matrix" values="0 0 0 0 0 0 0 0 0 0 0 0 0 0 0 0 0 0 0.25 0"/>
<feBlend mode="normal" in2="BackgroundImageFix" result="effect1_dropShadow_48_260"/>
<feBlend mode="normal" in="SourceGraphic" in2="effect1_dropShadow_48_260" result="shape"/>
</filter>
</defs>
</svg>
