<svg width="32" height="33" viewBox="0 0 32 33" fill="none" xmlns="http://www.w3.org/2000/svg">
<g clip-path="url(#clip0_48_239)">
<path d="M16 5.88994C16.2299 5.89026 16.4527 5.96979 16.6308 6.11514C16.809 6.26048 16.9316 6.46277 16.978 6.68794L17.756 10.4679L21.596 10.0399L21.77 10.0359C21.9699 10.0488 22.1613 10.1213 22.3195 10.2442C22.4777 10.367 22.5953 10.5346 22.6572 10.7251C22.719 10.9156 22.7222 11.1203 22.6664 11.3126C22.6106 11.505 22.4982 11.6762 22.344 11.8039L22.2 11.9039L18.84 13.8099L20.434 17.3299L20.49 17.4959C20.5396 17.6898 20.5299 17.894 20.4621 18.0823C20.3944 18.2705 20.2717 18.4341 20.11 18.5519C19.9481 18.6688 19.7548 18.7345 19.5552 18.7405C19.3556 18.7466 19.1587 18.6928 18.99 18.5859L18.85 18.4819L15.99 15.8819L13.13 18.4819C12.9598 18.6368 12.7415 18.7282 12.5117 18.7408C12.282 18.7533 12.0549 18.6863 11.8689 18.551C11.6828 18.4157 11.5491 18.2203 11.4903 17.9979C11.4315 17.7755 11.4511 17.5395 11.546 17.3299L13.138 13.8099L9.77801 11.9019C9.5796 11.7871 9.42658 11.6077 9.34445 11.3937C9.26233 11.1797 9.25608 10.9439 9.32675 10.7259C9.39741 10.5078 9.54072 10.3205 9.73276 10.1953C9.9248 10.0701 10.154 10.0146 10.382 10.0379L14.222 10.4659L15.002 6.68594L15.052 6.51794C15.1261 6.33187 15.2544 6.17235 15.4202 6.06002C15.586 5.94769 15.7817 5.88775 15.982 5.88794L16 5.88994Z" fill="#7F7F7F"/>
<path fill-rule="evenodd" clip-rule="evenodd" d="M16 0.75C18.1292 0.752441 20.2195 1.32088 22.0567 2.39708C23.8938 3.47328 25.4119 5.01855 26.4553 6.87457C27.4987 8.73059 28.0299 10.8306 27.9946 12.9595C27.9592 15.0884 27.3585 17.1697 26.254 18.99L29.654 24.09C29.8552 24.3923 29.9703 24.7437 29.9869 25.1064C30.0035 25.4692 29.9211 25.8296 29.7484 26.1491C29.5757 26.4685 29.3193 26.735 29.0067 26.9197C28.6941 27.1045 28.3371 27.2007 27.974 27.198L23.294 27.158L21.534 31.498C21.3968 31.8347 21.1705 32.1277 20.8796 32.3456C20.5886 32.5635 20.2438 32.6982 19.8821 32.7352C19.5204 32.7722 19.1555 32.7101 18.8264 32.5556C18.4974 32.401 18.2165 32.1599 18.014 31.858L15.994 28.838L13.974 31.878C13.772 32.1801 13.4915 32.4214 13.1627 32.5761C12.8339 32.7308 12.4692 32.793 12.1077 32.756C11.7462 32.719 11.4016 32.5841 11.1109 32.366C10.8203 32.1479 10.5946 31.8547 10.458 31.518L8.69798 27.178L4.01798 27.218C3.65459 27.2214 3.29714 27.1256 2.98412 26.941C2.67111 26.7564 2.41438 26.4899 2.24157 26.1702C2.06876 25.8505 1.98642 25.4897 2.00341 25.1267C2.02039 24.7637 2.13607 24.4122 2.33798 24.11L5.73798 18.99C4.63824 17.1695 4.04167 15.0897 4.00925 12.963C3.97684 10.8364 4.50975 8.73932 5.55349 6.88617C6.59724 5.03302 8.11438 3.49028 9.94981 2.41568C11.7852 1.34108 13.8731 0.773166 16 0.77V0.75ZM3.99998 25.15L9.35998 25.104C9.5607 25.1016 9.7575 25.1596 9.9248 25.2705C10.0921 25.3814 10.2221 25.5402 10.298 25.726L12.318 30.706L16.318 24.686C16.2113 24.6913 16.104 24.6947 15.996 24.696C12.416 24.696 9.19598 23.122 6.99598 20.636L3.99598 25.156L3.99998 25.15ZM25 20.63C23.416 22.4327 21.3248 23.7152 19 24.31L17.214 26.97L19.694 30.67L21.714 25.69C21.7894 25.5041 21.919 25.3452 22.0859 25.2339C22.2528 25.1226 22.4494 25.0641 22.65 25.066L28.01 25.114L25.01 20.614L25 20.63ZM16 2.69C10.48 2.69 5.99998 7.17 5.99998 12.69C5.99998 18.21 10.48 22.69 16 22.69C21.52 22.69 26 18.21 26 12.69C26 7.17 21.52 2.69 16 2.69Z" fill="#7F7F7F"/>
</g>
<defs>
<clipPath id="clip0_48_239">
<rect width="32" height="32" fill="white" transform="translate(0 0.75)"/>
</clipPath>
</defs>
</svg>
